Motion_kv03_j
version=1
nRows=5
nColumns=43
inDegrees=yes
endheader
time	pelvis_tilt	pelvis_list	pelvis_rotation	pelvis_tx	pelvis_ty	pelvis_tz	hip_flexion_r	hip_adduction_r	hip_rotation_r	knee_angle_r	ankle_angle_r	subtalar_angle_r	mtp_angle_r	hip_flexion_l	hip_adduction_l	hip_rotation_l	knee_angle_l	ankle_angle_l	subtalar_angle_l	mtp_angle_l	lumbar_extension	lumbar_bending	lumbar_rotation	neck_flexion	neck_lateral_bending	neck_rotation	arm_flex_r	arm_add_r	arm_rot_r	elbow_flex_r	pro_sup_r	wrist_flex_r	wrist_dev_r	hand_finger_flex_r	arm_flex_l	arm_add_l	arm_rot_l	elbow_flex_l	pro_sup_l	wrist_flex_l	wrist_dev_l	hand_finger_flex_l
      0.83500000	     -0.84174711	     33.07825620	    -86.06188064	      0.00065639	      1.54766862	      1.04143555	    111.44729976	     -7.57846902	    -10.78785844	   -104.71237255	     31.13300786	     11.82776643	      3.25282881	    108.63109721	     -0.12774003	     -7.94371693	   -100.52093361	     36.94438939	      8.50703044	     -9.20053846	    -63.13482340	      0.99942725	     -7.57497269	     56.01292244	      3.86229534	      7.12248507	    259.12804865	   -145.41902932	    240.38602934	     63.98336298	    138.58046250	      4.96210416	     10.88634367	    -24.35523912	     64.93378688	    -44.40514681	     33.85406993	     67.22737926	    156.08963608	    -19.93390246	     14.63970889	     56.73990487
      0.83750000	     -0.79764352	     32.95336508	    -86.06837110	      0.00085982	      1.54707479	      1.04438821	    111.12071181	     -7.59967119	    -10.64485835	   -103.58356931	     30.51187812	     11.68986878	      3.21381958	    108.32021299	     -0.10289194	     -7.98060234	    -99.27208617	     36.42092819	      8.31609284	     -9.20783148	    -63.03678267	      0.96910840	     -7.59551459	     55.85358899	      3.98976104	      7.11960510	    259.16088943	   -144.81027407	    240.60131340	     64.60718602	    138.19530970	      4.99336960	     11.08563477	    -24.33888511	     64.72769723	    -44.83202575	     33.41837793	     67.98241982	    156.69163644	    -19.37073263	     14.42321826	     57.20787778
      0.84000000	     -0.82766539	     32.85420404	    -86.03826005	      0.00086250	      1.54608244	      1.04721411	    110.80039523	     -7.58939647	    -10.53492387	   -102.46540311	     30.28208838	     11.71912417	      3.18636736	    108.03720540	     -0.13121045	     -7.98631437	    -98.03053300	     36.17141131	      8.36224328	     -9.23426133	    -62.78264879	      0.95970930	     -7.55231515	     55.22095095	      3.98041431	      7.11384566	    259.01496433	   -144.34078987	    240.62742637	     64.97444963	    138.15557229	      4.94379951	     11.07324688	    -24.34990871	     64.57133483	    -45.24067561	     33.31817912	     68.45224158	    156.74931064	    -19.39066967	     14.38134685	     57.27556944
      0.84250000	     -0.75791264	     32.62906838	    -86.04834851	      0.00101568	      1.54525108	      1.05028754	    110.40495316	     -7.62633922	    -10.38009339	   -101.40828593	     29.34983213	     11.51962300	      3.15225768	    107.64935847	     -0.10049269	     -8.02838841	    -96.86651055	     35.35259270	      8.10719657	     -9.25807976	    -62.78070732	      0.91795996	     -7.64113013	     55.07381901	      4.18486462	      7.13625414	    259.03051639	   -143.67933515	    240.82433449	     65.75472175	    137.72243681	      4.92384225	     11.27306822	    -24.19929662	     64.37416267	    -45.88889638	     33.00714088	     69.39815206	    157.28919629	    -18.78632614	     14.12600505	     57.99185346
      0.84500000	     -0.75852785	     32.43597377	    -86.03265984	      0.00106134	      1.54391232	      1.05324915	    110.03999223	     -7.61585197	    -10.25384945	   -100.38961248	     28.83683505	     11.51371813	      3.13031484	    107.29545008	     -0.13014443	     -8.03725580	    -95.71403803	     34.84054970	      8.11106034	     -9.28933702	    -62.60948850	      0.91550747	     -7.63205724	     54.44036336	      4.22550080	      7.14183204	    258.88464912	   -143.08705988	    240.89770181	     66.32035622	    137.57459912	      4.81990451	     11.27611798	    -24.15198779	     64.13440433	    -46.47006421	     32.88437002	     70.11213203	    157.45030380	    -18.67164344	     13.97951950	     58.27844881
